<?xml version="1.0" encoding="UTF-8"?>
<svg xmlns="http://www.w3.org/2000/svg" version="1.1" viewBox="0 0 595.28 841.89">
  <!-- Generator: Adobe Illustrator 29.1.0, SVG Export Plug-In . SVG Version: 2.1.0 Build 142)  -->
  <defs>
    <style>
      .st0 {
        stroke-width: 7.59px;
      }

      .st0, .st1, .st2 {
        fill: none;
        stroke: #000;
      }

      .st0, .st2 {
        stroke-linecap: round;
        stroke-linejoin: round;
      }

      .st1 {
        stroke-miterlimit: 10;
        stroke-width: .25px;
      }

      .st2 {
        stroke-width: 9px;
      }
    </style>
  </defs>
  <g id="Capa_03">
    <path class="st1" d="M265.13,307.46c-11.43,0-22.74,2.16-33.37,6.36-11.52,4.56-21.97,11.43-30.73,20.18-8.76,8.76-15.63,19.21-20.19,30.73-4.21,10.63-6.36,21.94-6.36,33.37s2.16,22.74,6.36,33.37c4.56,11.52,11.43,21.97,20.18,30.73,8.76,8.76,19.21,15.63,30.73,20.19,10.63,4.21,21.94,6.36,33.37,6.36s22.74-2.16,33.37-6.36c11.52-4.56,21.97-11.43,30.73-20.18,8.76-8.76,15.63-19.21,20.19-30.73,4.21-10.63,6.36-21.94,6.36-33.37s-2.16-22.74-6.36-33.37c-4.56-11.52-11.43-21.97-20.18-30.73-8.76-8.76-19.21-15.63-30.73-20.19-10.63-4.21-21.94-6.36-33.37-6.36Z"/>
    <path class="st0" d="M264.46,334.48c-8.02,0-15.96,1.51-23.42,4.47-8.08,3.2-15.42,8.02-21.57,14.17-6.15,6.15-10.97,13.49-14.17,21.57-2.95,7.46-4.47,15.4-4.47,23.42s1.51,15.96,4.47,23.42c3.2,8.08,8.02,15.42,14.17,21.57,6.15,6.15,13.49,10.97,21.57,14.17,7.46,2.95,15.4,4.47,23.42,4.47s15.96-1.51,23.42-4.47c8.08-3.2,15.42-8.02,21.57-14.17,6.15-6.15,10.97-13.49,14.17-21.57,2.95-7.46,4.47-15.4,4.47-23.42s-1.51-15.96-4.47-23.42c-3.2-8.08-8.02-15.42-14.17-21.57-6.15-6.15-13.49-10.97-21.57-14.17-7.46-2.95-15.4-4.47-23.42-4.47Z"/>
  </g>
  <g id="Capa_04">
    <polyline class="st2" points="265.13 398.11 355.78 398.11 265.13 488.76 355.78 488.76"/>
  </g>
</svg>